<?xml version="1.0" encoding="utf-8"?>
<!-- Generator: Adobe Illustrator 26.5.0, SVG Export Plug-In . SVG Version: 6.00 Build 0)  -->
<svg version="1.1" id="Layer_1" xmlns="http://www.w3.org/2000/svg" xmlns:xlink="http://www.w3.org/1999/xlink" x="0px" y="0px"
	 viewBox="0 0 431.8 431.7" style="enable-background:new 0 0 431.8 431.7;" xml:space="preserve">
<style type="text/css">
	.st0{fill:#B46060;}
</style>
<g id="Layer_1_00000031922902707562492480000006772017062381804987_">
	<g>
		<path class="st0" d="M119.9,31.1V61v2.2V249c0,36.8,49.8,32.1,49.8,32.1V249V61h-0.1C167.7,26.6,119.9,31.1,119.9,31.1z"/>
		<path class="st0" d="M251.2,172.8L251.2,172.8l-0.1,188.1v32.1c0,0,49.8,4.7,49.8-32.1v-187v-1.1v-31
			C300.9,141.8,252.2,137.3,251.2,172.8z"/>
		<path class="st0" d="M185.5,141.8v32.1V249c0,36.8,49.8,32.1,49.8,32.1V249v-75.1C235.3,137.1,185.5,141.8,185.5,141.8z"/>
	</g>
</g>
<g id="Layer_2_00000031169203570320778310000010136512463241951116_">
	<path class="st0" d="M253.9,114.1c0,24.5,11-6.3,23-6.3c12.1,0,23,30.8,23,6.3s-10.8-33-22.9-33S253.9,89.6,253.9,114.1z"/>
	<path class="st0" d="M166.9,317.6c0-24.5-10.9,6.3-23.1,6.3c-12.1,0-23.1-30.8-23.1-6.3c0,24.5,10.8,33,22.9,33
		C155.8,350.6,166.9,342.1,166.9,317.6z"/>
</g>
</svg>
